<svg height="512pt" viewBox="-64 0 512 512.00003" width="512pt" xmlns="http://www.w3.org/2000/svg"><path d="m281.46875 512c-2.410156 0-4.824219-.578125-7.027344-1.734375l-82.703125-43.503906-82.703125 43.503906c-4.679687 2.460937-10.304687 2.296875-14.832031-.441406-4.527344-2.734375-7.292969-7.632813-7.292969-12.921875v-305.167969c0-8.339844 6.757813-15.097656 15.097656-15.097656h179.460938c8.335938 0 15.097656 6.757812 15.097656 15.097656v305.167969c0 5.289062-2.765625 10.191406-7.292968 12.921875-2.394532 1.449219-5.097657 2.175781-7.804688 2.175781zm0 0" fill="#f2f6fc"/><path d="m281.46875 176.636719h-87.925781v291.074219l80.898437 42.554687c2.203125 1.15625 4.617188 1.734375 7.027344 1.734375 2.707031 0 5.410156-.726562 7.804688-2.175781 4.527343-2.730469 7.292968-7.632813 7.292968-12.921875v-305.167969c0-8.339844-6.761718-15.097656-15.097656-15.097656zm0 0" fill="#f24500"/><path d="m383.464844 191.734375c0-18.386719-8.964844-34.996094-23.230469-45.152344 7.277344-15.925781 6.734375-34.796875-2.457031-50.714843-9.191406-15.921876-25.261719-25.824219-42.691406-27.488282-1.660157-17.429687-11.566407-33.5-27.488282-42.691406-15.917968-9.191406-34.789062-9.734375-50.714844-2.457031-10.152343-14.265625-26.765624-23.230469-45.148437-23.230469s-34.996094 8.964844-45.152344 23.230469c-15.925781-7.273438-34.792969-6.734375-50.714843 2.457031-15.921876 9.191406-25.824219 25.261719-27.488282 42.691406-17.425781 1.664063-33.5 11.570313-42.691406 27.488282-9.191406 15.917968-9.734375 34.789062-2.457031 50.714843-14.265625 10.15625-23.230469 26.769531-23.230469 45.152344s8.964844 34.996094 23.230469 45.148437c-7.277344 15.925782-6.734375 34.796876 2.457031 50.714844 9.191406 15.921875 25.261719 25.828125 42.691406 27.488282 1.660156 17.429687 11.566406 33.5 27.488282 42.691406 15.917968 9.191406 34.789062 9.734375 50.714843 2.457031 10.152344 14.265625 26.765625 23.230469 45.152344 23.230469 18.382813 0 34.996094-8.964844 45.148437-23.230469 15.925782 7.277344 34.796876 6.734375 50.714844-2.457031 15.921875-9.191406 25.824219-25.261719 27.488282-42.691406 17.425781-1.660157 33.5-11.566407 42.691406-27.488282 9.191406-15.917968 9.734375-34.789062 2.457031-50.714844 14.265625-10.152343 23.230469-26.765624 23.230469-45.148437zm0 0" fill="#3d7ed9"/><path d="m191.734375 307.980469c-64.101563 0-116.25-52.148438-116.25-116.246094 0-64.101563 52.148437-116.25 116.25-116.25 64.097656 0 116.246094 52.148437 116.246094 116.25 0 64.097656-52.148438 116.246094-116.246094 116.246094zm0 0" fill="#fe6a16"/><path d="m156.777344 256.601562c-3.128906 0-6.242188-.972656-8.875-2.882812-4.648438-3.378906-6.976563-9.101562-6.003906-14.765625l5.335937-31.105469-22.601563-22.03125c-4.113281-4.011718-5.59375-10.011718-3.820312-15.476562 1.777344-5.464844 6.5-9.449219 12.1875-10.273438l31.230469-4.539062 13.96875-28.300782c2.542969-5.152343 7.792969-8.414062 13.539062-8.414062 5.742188 0 10.992188 3.261719 13.535157 8.414062l13.96875 28.300782 31.230468 4.539062c5.6875.824219 10.414063 4.808594 12.1875 10.273438 1.777344 5.464844.296875 11.464844-3.820312 15.476562l-22.597656 22.03125 5.332031 31.105469c.972656 5.664063-1.355469 11.386719-6.003907 14.765625-4.648437 3.375-10.8125 3.820312-15.898437 1.148438l-27.933594-14.6875-27.9375 14.6875c-2.207031 1.160156-4.617187 1.734374-7.023437 1.734374zm0 0" fill="#fff"/><path d="m360.234375 146.582031c7.277344-15.925781 6.734375-34.796875-2.457031-50.714843-9.1875-15.921876-25.261719-25.824219-42.691406-27.488282-1.660157-17.429687-11.566407-33.5-27.484376-42.691406-15.921874-9.191406-34.792968-9.734375-50.71875-2.457031-9.816406-13.792969-25.683593-22.609375-43.339843-23.1757815v383.3554685c17.65625-.566406 33.523437-9.378906 43.339843-23.175781 15.925782 7.277344 34.796876 6.734375 50.71875-2.457031 15.917969-9.191406 25.824219-25.261719 27.484376-42.691406 17.429687-1.660157 33.503906-11.566407 42.691406-27.488282 9.191406-15.917968 9.734375-34.789062 2.457031-50.714844 14.265625-10.152343 23.234375-26.765624 23.234375-45.148437-.003906-18.386719-8.96875-35-23.234375-45.152344zm0 0" fill="#0053bf"/><path d="m193.542969 75.507812v232.449219c63.265625-.96875 114.4375-52.726562 114.4375-116.222656s-51.171875-115.257813-114.4375-116.226563zm0 0" fill="#f24500"/><path d="m250.472656 160.066406-31.230468-4.539062-13.96875-28.300782c-2.273438-4.605468-6.710938-7.695312-11.730469-8.300781v122.203125l26.128906 13.738282c5.085937 2.671874 11.25 2.226562 15.898437-1.152344 4.648438-3.375 6.976563-9.101563 6.003907-14.765625l-5.332031-31.105469 22.597656-22.027344c4.117187-4.011718 5.597656-10.011718 3.820312-15.476562-1.773437-5.464844-6.5-9.449219-12.1875-10.273438zm0 0" fill="#dce1eb"/></svg>